<?xml version="1.0"?><svg width="640" height="480" xmlns="http://www.w3.org/2000/svg">
 <g>
  <title>Layer 1</title>
  <g id="layer1">
   <path fill="#d00000" fill-rule="evenodd" stroke="#000000" stroke-width="0.83349466px" id="path1309" d="m234.102951,28.783331c-28.100555,7.733969 -56.904144,23.114408 -77.16658,38.006472c-20.262436,14.892059 -73.190781,52.416306 -85.274544,64.306953c-11.715977,11.528717 -25.555008,15.550171 -31.610798,29.756256c-2.335419,5.478561 15.836613,22.005188 19.397541,23.720993c9.24128,4.45282 24.304527,-3.442749 31.177963,-3.914291c22.30719,-1.530304 45.167,-4.498718 67.760353,10.79277c-4.180542,4.22052 2.458008,-0.323257 -6.087692,36.693481c-3.013519,13.053421 -9.59874,46.919067 -1.507141,53.380402c8.039413,6.419647 12.949432,-18.605804 20.93692,-14.774353c-0.003998,0.005951 -0.001678,0.021057 -0.004532,0.026428c-0.00174,0.004791 -0.003906,0.022186 -0.004532,0.026428c0.000473,0.003632 -0.006119,0.023315 -0.004547,0.026398c0.002686,0.002563 0.021088,0.002838 0.024857,0.004822c0.024307,0.007263 0.077652,0.003662 0.128784,-0.002289c0.01503,0.007233 0.034653,0.00238 0.049713,0.009644c0.056458,0.02713 0.107895,0.059143 0.164871,0.086578l0.047531,-0.127258c3.781387,-0.977295 33.262756,-13.96582 60.176178,-8.742981c15.171402,2.944122 39.369339,-5.309586 53.290024,-9.615219c22.076019,-6.828033 53.067749,-12.998413 72.727966,-13.350723c14.483063,-0.259537 27.587158,-8.458984 41.52063,-9.414841c8.220398,-0.563934 0.598206,-27.065994 0.428284,-29.865585c-0.816589,-13.455078 -17.565063,-34.130325 -26.19101,-52.503693c-8.625977,-18.373383 -23.082153,-41.697006 -39.003876,-59.98616c-15.921692,-18.289162 -37.401642,-41.971394 -52.525269,-49.258572c-15.123596,-7.287182 -17.953186,-13.675442 -48.451096,-5.28166z"/>
   <path opacity="0.101124" fill="#0e0000" fill-rule="evenodd" stroke-width="1px" id="path5882" d="m166.955673,93.343681c-18.232727,4.416595 -33.84758,62.691414 -56.318993,72.821831c-14.697319,6.625763 -54.749039,16.692688 -51.18811,18.408493c9.24128,4.45282 24.304527,-3.442749 31.177963,-3.914291c22.30719,-1.530304 45.167,-4.498718 67.760353,10.79277c-4.180542,4.22052 2.458008,-0.323257 -6.087692,36.693481c-3.013519,13.053421 -9.59874,46.919067 -1.507141,53.380402c8.039413,6.419647 12.949432,-18.605804 20.93692,-14.774353c-0.003998,0.005951 -0.001678,0.021057 -0.004532,0.026428c-0.00174,0.004791 -0.003906,0.022186 -0.004532,0.026428c0.000473,0.003632 -0.006119,0.023315 -0.004547,0.026398c0.002686,0.002563 0.021088,0.002838 0.024857,0.004822c0.024307,0.007263 0.077652,0.003662 0.128784,-0.002289c0.01503,0.007233 0.034653,0.00238 0.049713,0.009644c0.056458,0.02713 0.107895,0.059143 0.164871,0.086578l0.047531,-0.127258c3.781387,-0.977295 33.262756,-13.96582 60.176178,-8.742981c15.171402,2.944122 39.369339,-5.309586 53.290024,-9.615219c22.076019,-6.828033 53.067749,-12.998413 72.727966,-13.350723c14.483063,-0.259537 27.587158,-8.458984 41.52063,-9.414841c8.220398,-0.563934 -51.085327,4.520645 -27.449646,-12.575775c10.485321,-7.58432 -104.983887,15.807678 -149.314041,-34.776764c-43.89537,-50.088303 -37.455338,-89.505585 -56.126556,-84.98278z"/>
   <path opacity="0.269663" fill="#000000" fill-rule="evenodd" stroke="#000000" stroke-width="0.830161" stroke-miterlimit="4" id="path5878" d="m41.92313,154.632217c3.5509,2.35289 27.397961,32.516937 30.215221,30.405746c0.340591,-3.330887 -2.440659,-4.64209 -4.397095,-5.022415c2.619637,-3.329254 3.113457,-6.810562 -1.432518,-7.10965c-5.040199,-0.889969 -10.542519,-1.514328 -5.132488,-6.935944c2.497849,-3.038712 -0.167942,-8.435059 -1.70171,-11.179932c-4.029522,-2.176376 -7.06599,-6.114349 -8.717632,-8.79126"/>
   <path opacity="0.294045" fill="#000000" fill-rule="evenodd" stroke="#000000" stroke-width="0.60142648px" id="path5003" d="m365.597351,219.58638c-7.451233,-2.642593 -16.801178,-5.694778 -23.389587,-5.287354c-4.524994,-3.822479 -7.998199,0.887878 -11.918854,2.141571c-0.657959,-7.359711 -11.510712,3.112305 -16.291321,3.172485c-3.394501,1.948334 -1.05481,-5.800537 -7.133514,-2.853088c-7.557556,0.713989 -12.232422,1.233231 -17.838776,3.660492c-1.346649,8.012787 -13.449036,12.526596 -15.260468,3.744293c-6.598541,2.871414 -18.868835,8.441177 -18.948318,-0.641632c-10.564316,8.193954 -10.90033,15.598358 -21.213806,19.552979c0.912598,-7.092194 -22.370636,-10.908035 -25.544434,-3.464722c-6.389633,2.57309 1.329147,-9.320969 -7.904556,-6.052322c-10.40062,-3.023865 -4.347031,17.934631 -25.553619,9.365967c-11.807693,-0.379822 -5.268692,16.719299 -13.061172,23.882233c-2.076096,7.532318 -11.083588,-2.624023 -14.72934,-2.060089c0.847946,11.926575 3.407684,7.882294 0.719238,15.996613c-1.604141,10.165375 -3.751282,15.255463 7.431793,17.372375c3.621201,-4.903595 -0.182053,-2.828979 0.62793,6.217468c6.457642,-1.879761 14.94635,-12.639984 14.075043,-1.581421c4.382019,-6.673309 18.254349,-10.151398 18.079941,-17.339142c7.021835,0.737091 14.902359,8.579437 20.829788,-0.952972c5.95076,-7.041199 14.504456,-10.306854 14.594269,-4.868561c7.23378,6.7565 7.957245,5.387299 15.477997,3.667816c-1.93718,-8.71167 17.59935,-0.598572 7.282715,-9.271698c4.097565,-4.103455 15.187485,-6.501404 21.596207,-5.075439c5.669495,8.254211 22.944092,8.937225 25.631866,-1.74704c0.563995,-8.404297 13.682251,-11.278748 18.58725,-5.468231c8.529694,-7.478592 21.984222,3.388489 29.324097,-2.344177c-6.597595,-8.562958 9.324432,-14.158127 12.297882,-7.592987c5.841675,-3.136642 11.278015,-14.422852 17.668335,-6.342834c7.349884,-2.395233 16.324707,-5.725571 22.542236,-8.221817c4.666656,7.693146 16.747314,-0.2211 11.510529,-9.532288c-2.834808,-6.650681 9.309753,3.274445 6.003479,-5.163666c-3.760864,-9.076889 -9.042633,-21.691818 -15.513763,-21.274796c-8.812408,-2.201859 -14.037659,3.744919 -14.403442,12.160446c-0.11142,-6.141144 -10.522278,-0.154999 -15.983215,2.07193l-2.993866,0.712265l-3.576874,-2.522934"/>
   <path fill="#ffffff" fill-rule="evenodd" stroke="#000000" stroke-width="0.60142648px" id="path1307" d="m370.523956,221.830704c-7.451233,-2.642609 -14.356232,-3.014114 -20.944641,-2.606674c-4.524994,-3.822495 -9.894928,-2.568909 -13.815552,-1.315216c-0.657959,-7.359711 -9.614014,6.569077 -14.394623,6.629257c-3.394531,1.948334 -1.05481,-5.800522 -7.133545,-2.853088c-7.557526,0.713989 -16.319031,-3.972244 -21.925354,-1.544998c-1.34668,8.012802 -13.449066,12.526611 -15.260468,3.744308c-6.598572,2.871414 -14.782257,13.646667 -14.861725,4.563843c-12.384537,-0.542892 -17.690033,11.63327 -28.003525,15.587891c0.912613,-7.092163 -15.580902,-6.942947 -18.754715,0.500381c-6.389618,2.57309 -1.699158,-13.438599 -10.932861,-10.169952c-10.400604,-3.023865 -10.116653,17.697464 -22.525314,13.483582c-11.807678,-0.379822 -10.158585,11.357941 -17.951065,18.520874c-2.076096,7.532318 -6.19368,2.737335 -9.839432,3.3013c5.99913,8.513794 -18.392639,6.740387 -11.15152,19.870361c-1.604141,10.165375 0.848511,17.471863 12.03157,19.588745c3.621216,-4.903595 7.088928,-8.919128 7.898895,0.127319c6.457642,-1.879761 14.94635,-12.639954 14.075043,-1.581421c4.382034,-6.673279 18.254349,-10.151398 18.079941,-17.339111c7.021851,0.737061 14.902359,8.579407 20.829788,-0.953003c5.95076,-7.041199 6.933533,-1.296021 7.023331,4.142273c7.23378,6.7565 15.528198,-3.623535 23.04895,-5.343018c-1.937195,-8.711639 17.59935,-0.598572 7.282715,-9.271698c4.097549,-4.103424 15.187485,-6.501404 21.596207,-5.075439c5.623169,5.334106 22.944061,8.937225 25.631866,-1.74704c0.563995,-8.404266 13.682251,-11.278717 18.58725,-5.468231c8.529663,-7.478577 21.984192,3.388519 29.324066,-2.344177c-6.597565,-8.562958 9.324463,-14.158127 12.297882,-7.592987c5.841705,-3.136627 11.278046,-14.422836 17.668365,-6.342819c7.349854,-2.395233 16.324677,-5.725586 22.542236,-8.221832c4.666656,7.693146 16.747314,-0.2211 11.510529,-9.532272c-2.834839,-6.650696 9.309723,3.274445 6.003479,-5.163666c0.073853,-9.656464 -3.56311,-24.599655 -15.513763,-21.274811c-8.812408,-2.201843 -14.037659,3.744919 -14.403442,12.160446c-0.11145,-6.141129 -14.025543,-3.923523 -19.48645,-1.696609l-1.78894,0.946106l-1.278595,1.011765"/>
   <path fill="none" fill-opacity="0.75" fill-rule="evenodd" stroke="#000000" stroke-width="0.83349466px" id="path3126" d="m155.67981,210.888306c3.140121,-40.847473 23.785477,-59.450226 20.15126,-92.120613c-2.148087,-19.310471 -19.537003,-4.672729 -13.869354,13.441734"/>
   <path opacity="0.11236" fill="#000000" fill-rule="evenodd" stroke-width="0.7215721px" id="path3249" d="m163.978027,266.618744c-2.076096,7.532318 -6.19368,2.737335 -9.839447,3.3013c5.999146,8.513763 -18.392624,6.740417 -11.15152,19.870361c-1.604141,10.165375 0.848526,17.471832 12.031586,19.588745c3.621201,-4.903595 7.088928,-8.919128 7.898895,0.12735c6.457642,-1.879791 14.94635,-12.640015 14.075043,-1.581451c4.382019,-6.673279 18.254349,-10.151398 18.079941,-17.339111c7.021835,0.737061 14.565872,7.34967 20.493301,-2.18277c5.95076,-7.041199 7.269989,-0.066254 7.359818,5.37204c7.233765,6.7565 15.528183,-3.623535 23.04895,-5.342987c-1.93721,-8.71167 8.86644,-1.545258 7.2827,-9.271729c-1.037216,-5.06015 33.644928,-3.562042 28.656677,-8.510437c-14.905884,-14.786789 -38.191116,7.492096 -41.559998,6.070099c-3.368866,-1.422028 -7.091248,-0.55957 -2.384857,-2.719269c4.70639,-2.159668 -6.742493,1.392487 -16.277435,-1.994354c-9.534958,-3.386841 -16.514389,0.894928 -17.151306,9.342804c-7.181747,-4.466675 -7.69632,0.606842 -18.885086,3.718048c7.129456,-10.422821 -12.599594,-2.768829 -12.599594,-2.768829c0,0 3.437286,-11.427979 -2.73938,-9.919647c3.320679,-5.964172 -0.364899,-7.801605 -0.364899,-7.801605c0,0 1.819077,-5.12149 -5.973389,2.041443z"/>
   <path fill="#ffffff" fill-rule="evenodd" stroke="#000000" stroke-width="0.813602" stroke-miterlimit="4" id="path2251" d="m46.94474,146.244904c-1.30167,-2.318283 -5.35751,-2.956604 -5.879402,-4.922577c0.90649,-2.283417 -2.659107,-0.627182 -3.361698,-1.882416c-4.19445,3.433609 -9.984501,4.919891 -13.09271,9.642532c1.65279,-0.362457 1.64884,-2.77858 -0.157049,-0.99614c-3.4011,1.689651 -6.68816,4.6577 -5.40926,8.892822c0.30978,2.173248 -2.42555,4.04332 0.91357,4.558044c-0.435411,3.47934 -5.654951,3.33284 -5.658061,6.403702c1.15534,3.349503 0.64712,6.840149 -2.10073,9.189545c-2.71803,2.541779 -1.59865,6.283112 -1.49959,9.37085c-1.36698,2.065308 -2.13642,3.985718 -0.33471,5.953003c0.38145,3.548203 3.32699,5.897552 3.34894,9.589294c1.24005,1.934937 3.72671,1.815201 4.99685,4.00177c3.71048,0.315399 3.982719,5.49649 7.51721,6.215103c3.03618,0.99028 6.628639,0.303619 9.36441,1.0298c2.24374,1.819016 4.81921,3.086899 7.64389,3.597717c3.5509,2.259979 4.757771,-3.364792 6.906738,-5.175949c0.11142,-2.831955 2.146,-3.052322 3.50853,-0.667709c3.101002,2.102356 6.314022,-1.518112 8.537182,-3.433838c2.173492,-2.369049 4.611893,-4.419998 7.032082,-6.497162c3.435928,-3.878555 4.655815,-9.429703 4.46357,-14.535019c0.340591,-3.199326 -2.634125,-3.376343 -4.590538,-3.741653c0.884575,-2.682327 3.113434,-6.541595 -1.432541,-6.828857c-2.606956,-0.680893 -8.517292,-3.593552 -5.132484,-6.662018c2.497849,-2.918716 -0.939758,-6.847702 -2.47353,-9.484192c-2.656219,-2.114059 -4.199509,-5.058945 -5.851147,-7.630142c-3.197681,-0.509521 -6.194344,-2.452744 -7.00951,-5.845093c-0.853642,-2.694046 -0.236401,-0.699036 0.032967,0.612457"/>
   <path opacity="0.095506" fill="#000000" fill-rule="evenodd" stroke-width="0.996" stroke-miterlimit="4" id="path4128" d="m20.40484,181.846146c-1.601301,-1.968399 4.721409,-1.041168 4.199509,-3.007141c0.90649,-2.283401 -0.178268,-2.378464 -0.880859,-3.633713c-4.19445,3.433609 -3.206631,-4.700882 -6.31484,0.021774c1.652781,-0.362473 1.38101,-6.333572 -0.424879,-4.551147c-3.4011,1.689651 -2.680531,-5.805908 -2.68364,-2.735046c1.15534,3.349503 0.64712,6.840149 -2.10073,9.189545c-2.71803,2.541779 -1.59865,6.283112 -1.49959,9.37085c-1.36698,2.065308 -2.13642,3.985718 -0.33471,5.953003c0.38145,3.548203 3.32699,5.897552 3.34894,9.589294c1.24005,1.934937 3.72671,1.815201 4.99685,4.00177c3.71048,0.315399 3.982719,5.49649 7.51721,6.215103c3.03618,0.99028 6.628639,0.303619 9.36441,1.0298c2.24374,1.819016 4.81921,3.086899 7.64389,3.597717c3.5509,2.259979 4.757771,-3.364792 6.906738,-5.175949c0.11142,-2.831955 2.146,-3.052322 3.50853,-0.667709c3.101002,2.102356 6.314022,-1.518112 8.537182,-3.433838c2.173492,-2.369049 -8.345959,0.359314 -5.925762,-1.717834c3.435921,-3.878571 -7.75248,5.413773 -7.944729,0.308472c0.34058,-3.199326 -12.37038,4.070557 -9.678509,-1.553909c0.88459,-2.682343 1.535908,-0.74791 -3.010059,-1.035172c-2.60696,-0.680908 -9.803532,-5.493607 -6.418722,-8.562057c2.497841,-2.918716 -1.34207,0.456375 -2.875839,-2.180099c-2.656219,-2.114059 -0.95965,-0.950012 -2.61129,-3.521179c-3.19768,-0.509521 -1.79179,-1.816605 -2.60696,-5.208954c-1.38336,3.980072 -0.98151,-3.605072 -0.712139,-2.293579z"/>
   <path fill="#000000" fill-opacity="0.223464" fill-rule="evenodd" stroke-width="1px" id="path5880" d="m157.670349,192.361496c0,0 13.144562,-33.511642 16.302917,-46.8815c2.955002,-12.508881 2.572647,-31.603149 -1.853104,-35.137207c-4.425735,-3.534058 -10.24707,2.578293 -10.860611,9.816032c-0.613541,7.237732 -1.127426,9.061638 1.843491,22.867455c1.346802,6.258514 0.674164,21.093124 -1.156937,28.094589c-1.8311,7.00145 -5.826675,22.94606 -4.275757,21.240631z"/>
  </g>
 </g>
</svg>